<svg xmlns="http://www.w3.org/2000/svg" height="35" viewBox="0 96 960 960" width="24"><path d="m449.076 722.153 104-104 104 104L699.229 680l-104-104 104-104-42.153-42.153-104 104-104-104L406.924 472l104 104-104 104 42.152 42.153ZM142.309 576l158.615-224.46q11.769-16.769 30.038-26.154 18.269-9.385 39.039-9.385h375.383q29.922 0 51.115 21.193 21.192 21.192 21.192 51.115v375.382q0 29.923-21.192 51.115-21.193 21.193-51.115 21.193H370.001q-21.154 0-39.039-9.77-17.884-9.769-30.038-26.538L142.309 576Zm73.383 0 135.077 189.999q3.077 4.231 8.269 7.116Q364.231 776 370.001 776h375.383q4.615 0 8.462-3.846 3.846-3.847 3.846-8.463V388.309q0-4.616-3.846-8.463-3.847-3.846-8.462-3.846H370.001q-5.77 0-10.963 2.885-5.192 2.885-8.269 7.116L215.692 576Zm542 0V376 776 576Z"/></svg>