<svg xmlns="http://www.w3.org/2000/svg" height="40" viewBox="0 96 960 960" width="24"><path d="M524 995.999q-79.804 0-149.632-30.27-69.829-30.269-121.829-82.268-51.999-52-82.268-121.829-30.27-69.828-30.27-149.632 0-131.384 80.115-234.037Q300.23 275.31 427.306 243.31q-11.076 96.307 19.847 186.768 30.923 90.462 99.615 159.154t159.154 99.615q90.461 30.923 186.768 19.847-31.385 127.076-134.346 207.19Q655.384 995.999 524 995.999ZM524 936q88 0 163-44t118-121.107q-86-8.011-163-43.56-77-35.549-138-96.633-61-61.085-97-137.892Q371 416 364 330q-77 43-120.5 118.5T200 612q0 135 94.5 229.5T524 936Zm-20-305.385Z"/></svg>